<svg width="198" height="200" viewBox="0 0 198 200" fill="none" xmlns="http://www.w3.org/2000/svg">
<path d="M98.9693 0C108.06 0 115.424 7.36364 115.424 16.4545C115.424 25.5455 108.06 32.9091 98.9693 32.9091C89.8784 32.9091 82.5148 25.5455 82.5148 16.4545C82.5148 7.36364 89.8784 0 98.9693 0ZM109.015 64.8485C104.121 57.4091 93.833 57.4091 88.939 64.8485C77.7117 81.9091 61.0905 109.667 61.0905 124.561C61.0905 147.046 78.0451 165.273 98.9693 165.273C119.894 165.273 136.848 147.046 136.848 124.561C136.848 109.667 120.227 81.9091 109.015 64.8485Z" fill="#FFCC00"/>
<path d="M197.94 101.03C197.94 63.6665 177.258 29.8786 143.955 12.8634C139.894 10.7877 134.924 12.3937 132.864 16.4544C130.788 20.515 132.394 25.4847 136.455 27.5453C164.212 41.7271 181.439 69.8938 181.439 101.03C181.439 114.909 177.985 127.985 171.909 139.47C172.743 135.03 173.197 130.454 173.197 125.773C173.197 107.667 166.606 90.2271 154.636 76.6665C151.621 73.2574 146.409 72.9241 143 75.9393C139.591 78.9544 139.258 84.1665 142.273 87.5756C151.576 98.1211 156.697 111.682 156.697 125.757C156.697 156.591 132.394 181.864 101.924 183.409C100.939 183.439 99.9546 183.485 98.9546 183.485C97.9546 183.485 96.9697 183.439 95.9849 183.409C65.5303 181.864 41.2121 156.591 41.2121 125.757C41.2121 112.485 45.5909 100.015 53.8637 89.6817C56.7121 86.1211 56.1364 80.9393 52.5909 78.0908C49.0303 75.2423 43.8485 75.818 41 79.3635C30.5 92.4696 24.7121 108.939 24.7121 125.757C24.7121 130.439 25.1667 135 26 139.454C19.9243 127.97 16.4697 114.894 16.4697 101.015C16.4697 69.8786 33.7121 41.712 61.4546 27.5301C65.5152 25.4544 67.1212 20.4847 65.0455 16.4392C62.9697 12.3786 58 10.7725 53.9546 12.8483C20.6818 29.8786 0 63.6665 0 101.03C0 154.318 42.3485 197.894 95.1516 199.909C96.4091 199.97 97.6819 200 98.9697 200C100.258 200 101.515 199.97 102.788 199.909C155.591 197.894 197.94 154.318 197.94 101.03Z" fill="#02E2AC"/>
</svg>
